<svg xmlns="http://www.w3.org/2000/svg" width="24" height="24" viewBox="0 0 24 24" fill="none" aria-hidden="true">
  <path fill="#FFFFFF" d="M12.04 2a9.82 9.82 0 0 0-8.5 14.73L2.1 22l5.39-1.41A9.95 9.95 0 0 0 12.04 22 9.96 9.96 0 0 0 22 12.04 9.96 9.96 0 0 0 12.04 2Zm0 18.18a8.18 8.18 0 0 1-4.17-1.14l-.3-.18-3.2.84.85-3.12-.2-.32a8.12 8.12 0 1 1 7.02 3.92Zm4.49-6.12c-.25-.12-1.46-.72-1.69-.8-.23-.09-.4-.13-.57.12-.17.25-.65.8-.8.97-.15.16-.3.18-.55.06-1.46-.73-2.42-1.3-3.4-2.96-.26-.45.26-.42.74-1.39.08-.16.04-.3-.02-.43-.06-.12-.57-1.37-.78-1.88-.2-.49-.41-.42-.57-.43h-.49c-.17 0-.44.06-.67.3-.23.25-.88.86-.88 2.1s.9 2.43 1.03 2.6c.12.17 1.78 2.72 4.31 3.81.6.26 1.07.42 1.44.53.6.19 1.15.16 1.58.1.48-.07 1.46-.6 1.67-1.17.2-.58.2-1.07.14-1.18-.06-.1-.23-.16-.48-.29Z"/>
</svg>
